<svg xmlns="http://www.w3.org/2000/svg" viewBox="0 0 240 180" fill="none" stroke-linecap="round" stroke-linejoin="round"><g transform="translate(30 72) scale(0.95)" stroke="#2563EB" stroke-width="2"><path d="M8 55v-12c0-8 6-15 14-17l25-7L64 4h54l18 15 29 8c9 2 15 10 15 19v9H8Z" fill="#EFF6FF"/><path d="M47 19h90"/><circle cx="45" cy="55" r="15" fill="#fff"/><circle cx="145" cy="55" r="15" fill="#fff"/></g><path d="m187 35 5 9 10 2-7 7 2 10-10-5-9 5 2-10-7-7 10-2 4-9Z" fill="#EFF6FF" stroke="#2563EB" stroke-width="2"/></svg>